<svg width="103" height="25" viewBox="0 0 103 25" fill="none" xmlns="http://www.w3.org/2000/svg">
<path d="M33.1165 3.98586C33.1469 4.64143 32.9072 5.28078 32.4532 5.75472C31.9459 6.28167 31.2384 6.56789 30.5075 6.54187C29.7719 6.54907 29.0645 6.25944 28.5452 5.73846C28.0258 5.21747 27.7385 4.50914 27.748 3.77359C27.7385 3.03805 28.0258 2.32971 28.5452 1.80873C29.0645 1.28775 29.7719 0.998115 30.5075 1.00532C30.8814 1.00407 31.2516 1.07932 31.5953 1.22643C31.9154 1.35551 32.2003 1.55858 32.4267 1.819L31.9579 2.28775C31.6 1.86205 31.0628 1.62945 30.5075 1.6598C29.9508 1.65715 29.417 1.88075 29.0285 2.27932C28.6399 2.67789 28.4299 3.21722 28.4467 3.77359C28.4349 4.61663 28.9314 5.384 29.7052 5.71869C30.4791 6.05338 31.3783 5.88964 31.9845 5.30366C32.2566 5.00874 32.4136 4.62575 32.4267 4.22465H30.5075V3.58786H33.0812C33.1048 3.71921 33.1166 3.85241 33.1165 3.98586Z" fill="white" stroke="white" stroke-width="0.2"/>
<path d="M37.1668 1.77454H34.7788V3.45496H36.9545V4.09175H34.7788V5.77217H37.1668V6.42665H34.0713V1.12006H37.1668V1.77454Z" fill="white" stroke="white" stroke-width="0.2"/>
<path d="M40.068 6.42665H39.387V1.77454H37.9011V1.12006H41.5892V1.77454H40.068V6.42665Z" fill="white" stroke="white" stroke-width="0.2"/>
<path d="M44.1892 6.42665V1.12006H44.8702V6.42665H44.1892Z" fill="white" stroke="white" stroke-width="0.2"/>
<path d="M47.8951 6.42665H47.2141V1.77454H45.7283V1.12006H49.3721V1.77454H47.8951V6.42665Z" fill="white" stroke="white" stroke-width="0.2"/>
<path fill-rule="evenodd" clip-rule="evenodd" d="M51.61 3.77355C51.5939 4.50625 51.8746 5.21437 52.3883 5.73699C53.4647 6.80736 55.2035 6.80736 56.2798 5.73699C56.7936 5.21437 57.0743 4.50625 57.0581 3.77355C57.0743 3.04085 56.7936 2.33273 56.2798 1.81011C55.7651 1.29161 55.0647 1 54.3341 1C53.6035 1 52.9031 1.29161 52.3883 1.81011C51.8746 2.33273 51.5939 3.04085 51.61 3.77355ZM55.7756 5.2951C54.9784 6.08894 53.6895 6.08894 52.8924 5.2951C52.4956 4.89008 52.2816 4.34055 52.2998 3.77388C52.2721 3.21231 52.4731 2.66349 52.857 2.25266C53.6541 1.45882 54.9431 1.45882 55.7402 2.25266C56.1499 2.65173 56.3771 3.202 56.3682 3.77388C56.3864 4.34055 56.1723 4.89008 55.7756 5.2951Z" fill="white"/>
<path d="M52.3883 5.73699L52.317 5.8071L52.3178 5.8079L52.3883 5.73699ZM51.61 3.77355L51.7101 3.77576L51.71 3.77134L51.61 3.77355ZM56.2798 5.73699L56.3504 5.8079L56.3512 5.8071L56.2798 5.73699ZM57.0581 3.77355L56.9581 3.77134L56.9582 3.77576L57.0581 3.77355ZM56.2798 1.81011L56.3512 1.74001L56.3508 1.73966L56.2798 1.81011ZM52.3883 1.81011L52.3174 1.73966L52.317 1.74001L52.3883 1.81011ZM52.8924 5.2951L52.8209 5.36509L52.8218 5.36596L52.8924 5.2951ZM55.7756 5.2951L55.8462 5.36597L55.847 5.36508L55.7756 5.2951ZM52.2998 3.77388L52.4001 3.77711L52.3997 3.76896L52.2998 3.77388ZM52.857 2.25266L52.7864 2.18175L52.7839 2.18439L52.857 2.25266ZM55.7402 2.25266L55.6697 2.32352L55.6705 2.32429L55.7402 2.25266ZM56.3682 3.77388L56.2681 3.77232L56.2682 3.77709L56.3682 3.77388ZM52.4596 5.66689C51.9648 5.16351 51.6944 4.48147 51.71 3.77576L51.5101 3.77134C51.4933 4.53103 51.7843 5.26523 52.317 5.8071L52.4596 5.66689ZM56.2093 5.66608C55.172 6.69766 53.4962 6.69766 52.4589 5.66608L52.3178 5.8079C53.4332 6.91706 55.235 6.91706 56.3504 5.8079L56.2093 5.66608ZM56.9582 3.77576C56.9738 4.48147 56.7034 5.16351 56.2085 5.66689L56.3512 5.8071C56.8839 5.26523 57.1749 4.53103 57.1581 3.77134L56.9582 3.77576ZM56.2085 1.88022C56.7034 2.38359 56.9738 3.06563 56.9582 3.77134L57.1581 3.77576C57.1749 3.01608 56.8839 2.28188 56.3512 1.74001L56.2085 1.88022ZM54.3341 1.1C55.0381 1.1 55.7129 1.38097 56.2089 1.88056L56.3508 1.73966C55.8173 1.20225 55.0914 0.9 54.3341 0.9V1.1ZM52.4593 1.88056C52.9553 1.38097 53.6301 1.1 54.3341 1.1V0.9C53.5768 0.9 52.8509 1.20225 52.3174 1.73966L52.4593 1.88056ZM51.71 3.77134C51.6944 3.06563 51.9648 2.38359 52.4596 1.88022L52.317 1.74001C51.7843 2.28188 51.4933 3.01608 51.5101 3.77576L51.71 3.77134ZM52.8218 5.36596C53.658 6.19865 55.01 6.19865 55.8462 5.36596L55.705 5.22425C54.9469 5.97923 53.7211 5.97923 52.9629 5.22425L52.8218 5.36596ZM52.1998 3.77066C52.1807 4.3646 52.4051 4.94057 52.8209 5.36508L52.9638 5.22513C52.5861 4.83959 52.3824 4.3165 52.3997 3.77709L52.1998 3.77066ZM52.7839 2.18439C52.3816 2.61499 52.1709 3.19022 52.1999 3.7788L52.3997 3.76896C52.3733 3.23441 52.5647 2.71199 52.93 2.32093L52.7839 2.18439ZM55.8108 2.1818C54.9746 1.34911 53.6226 1.34911 52.7864 2.1818L52.9275 2.32351C53.6857 1.56853 54.9115 1.56853 55.6697 2.32351L55.8108 2.1818ZM56.4682 3.77544C56.4775 3.17605 56.2394 2.5993 55.81 2.18102L55.6705 2.32429C56.0604 2.70416 56.2767 3.22796 56.2682 3.77232L56.4682 3.77544ZM55.847 5.36508C56.2629 4.94057 56.4872 4.3646 56.4681 3.77066L56.2682 3.77709C56.2856 4.3165 56.0818 4.83959 55.7042 5.22513L55.847 5.36508Z" fill="white"/>
<path d="M58.022 6.42665V1.12006H58.8533L61.4359 5.25036V5.25036V4.22441V1.12006H62.1169V6.42665H61.4093L58.703 2.10178V2.10178V3.12772V6.42665H58.022Z" fill="white" stroke="white" stroke-width="0.2"/>
<path fill-rule="evenodd" clip-rule="evenodd" d="M33.3994 15.3242V16.9162H37.2201C37.1602 17.666 36.8485 18.3735 36.3357 18.9238C35.5627 19.7112 34.493 20.1352 33.3905 20.0913C31.0459 20.0913 29.1453 18.1906 29.1453 15.846C29.1453 13.5014 31.0459 11.6007 33.3905 11.6007C34.4676 11.5832 35.5076 11.9935 36.2826 12.7416L37.4059 11.6184C36.3489 10.5481 34.9035 9.95148 33.3994 9.96452C31.2581 9.88119 29.2429 10.976 28.1475 12.8178C27.0521 14.6595 27.0521 16.9529 28.1475 18.7946C29.2429 20.6364 31.2581 21.7312 33.3994 21.6479C34.931 21.7171 36.4177 21.1205 37.4766 20.0117C38.4032 18.9936 38.8979 17.6553 38.8563 16.2794C38.8592 15.9442 38.8296 15.6095 38.7679 15.28L33.3994 15.3242ZM43.2081 14.1654C41.1333 14.1703 39.4549 15.8553 39.4581 17.9301C39.4614 20.0049 41.1451 21.6847 43.2199 21.683C45.2947 21.6814 46.9758 19.999 46.9758 17.9242C46.9904 16.9198 46.5966 15.9526 45.8846 15.2439C45.1727 14.5353 44.2036 14.1461 43.1993 14.1654H43.2081ZM47.7009 17.936C47.6944 15.8623 49.3684 14.1751 51.442 14.1654C52.4463 14.1461 53.4154 14.5353 54.1274 15.2439C54.8393 15.9526 55.2331 16.9198 55.2186 17.9242C55.2185 19.9979 53.5392 21.6798 51.4656 21.683C49.3919 21.6862 47.7074 20.0096 47.7009 17.936ZM49.3892 18.9141C49.7931 19.7595 50.6727 20.2721 51.6074 20.2068C52.194 20.1932 52.7503 19.9432 53.1499 19.5135C53.5496 19.0839 53.7588 18.511 53.73 17.9249C53.7277 16.988 53.153 16.1477 52.2806 15.8059C51.4082 15.4641 50.4156 15.6903 49.7774 16.3763C49.1393 17.0623 48.9854 18.0687 49.3892 18.9141ZM41.1274 18.9202C41.5342 19.7651 42.4163 20.2752 43.3515 20.2061H43.3426C43.9293 20.1925 44.4855 19.9425 44.8852 19.5129C45.2849 19.0832 45.4941 18.5104 45.4653 17.9243C45.4627 16.9866 44.8868 16.1459 44.0133 15.8049C43.1399 15.4639 42.1467 15.6919 41.5095 16.3798C40.8723 17.0677 40.7207 18.0754 41.1274 18.9202ZM70.2539 14.1656C71.7202 14.2196 73.001 15.1731 73.4733 16.5624L73.659 16.9604L68.6266 19.0388C68.942 19.7571 69.6645 20.2096 70.4485 20.1797C71.2054 20.1816 71.9076 19.7852 72.297 19.1361L73.5794 20.0205C72.8813 21.0654 71.7052 21.69 70.4485 21.6832C69.4496 21.6979 68.4877 21.3057 67.7838 20.5968C67.0798 19.8879 66.6945 18.9232 66.7162 17.9244C66.6551 16.9485 67.0006 15.9907 67.6708 15.2787C68.341 14.5666 69.2761 14.1637 70.2539 14.1656ZM68.3435 17.8183C68.3073 17.2657 68.495 16.7218 68.8644 16.3091C69.2338 15.8965 69.7537 15.6499 70.3069 15.6249C70.8901 15.5865 71.4399 15.8997 71.7043 16.4209L68.3435 17.8183ZM65.9111 21.4621H64.2572V10.4067H65.9111V21.4621ZM61.5511 15.0059H61.4892C60.9851 14.4423 60.2643 14.1205 59.5081 14.1215C57.5006 14.2189 55.9229 15.8749 55.9229 17.8848C55.9229 19.8947 57.5006 21.5507 59.5081 21.648C60.2668 21.6608 60.9922 21.337 61.4892 20.7636H61.5423V21.3031C61.5423 22.7447 60.7728 23.5142 59.5346 23.5142C58.6911 23.4944 57.9433 22.9668 57.6419 22.1787L56.2003 22.7801C56.7555 24.1305 58.0746 25.0088 59.5346 25C61.4715 25 63.0724 23.8591 63.0724 21.082V14.3868H61.5511V15.0059ZM59.6555 20.2059L59.6583 20.2062H59.6494L59.6555 20.2059ZM61.1459 19.4967C60.7663 19.9262 60.228 20.1822 59.6555 20.2059C58.4743 20.1004 57.5687 19.1106 57.5687 17.9243C57.5687 16.7372 58.4757 15.7467 59.6583 15.6425C60.2297 15.6718 60.7651 15.9306 61.1431 16.3602C61.5211 16.7898 61.7096 17.3538 61.6659 17.9243C61.7147 18.4975 61.5268 19.0656 61.1459 19.4967ZM81.2208 10.407H77.2585V21.4624H78.9124V17.2702H81.2208C82.5056 17.3625 83.7343 16.7293 84.4049 15.6295C85.0754 14.5297 85.0754 13.1474 84.4049 12.0476C83.7343 10.9478 82.5056 10.3147 81.2208 10.407ZM78.9125 15.7135H81.2209L81.2563 15.7401C82.304 15.7401 83.1534 14.8907 83.1534 13.8429C83.1534 12.7952 82.304 11.9458 81.2563 11.9458H78.9125V15.7135ZM91.4183 14.1219C90.1878 14.0483 89.0309 14.7119 88.4731 15.8111L89.9413 16.4214C90.2371 15.8763 90.8267 15.5572 91.4448 15.6077C91.8689 15.5582 92.2952 15.6811 92.6278 15.9489C92.9604 16.2166 93.1715 16.6068 93.2137 17.0317V17.1466C92.6825 16.8654 92.0901 16.7196 91.4891 16.7221C89.9059 16.7221 88.3051 17.6065 88.3051 19.2074C88.3367 19.897 88.6458 20.5445 89.1622 21.0026C89.6786 21.4607 90.3584 21.6904 91.0468 21.6395C91.8952 21.7005 92.7092 21.2935 93.1695 20.5782H93.2225V21.4627H94.8145V17.2085C94.8145 15.2716 93.3464 14.1484 91.4625 14.1484L91.4183 14.1219ZM89.9237 19.2424C89.9237 19.9057 90.6754 20.1799 91.215 20.1799L91.2592 20.2064C92.2555 20.1821 93.0817 19.4276 93.1961 18.4375C92.7372 18.1814 92.2179 18.0531 91.6926 18.0661C90.8612 18.0661 89.9237 18.3579 89.9237 19.2424ZM100.616 14.3867L98.7237 19.1803H98.6707L96.7072 14.3867H94.9383L97.8835 21.0907L96.2031 24.8141H97.9277L102.456 14.3867H100.616ZM87.4031 21.4621H85.7492V10.4067H87.4031V21.4621Z" fill="white"/>
<path d="M0.409985 1.59829C0.12806 1.9468 -0.0110286 2.38936 0.0208346 2.83649V22.4001C-0.00609314 22.8496 0.139406 23.2924 0.427674 23.6383L0.489584 23.7003L11.43 12.751V12.4945L0.471895 1.53638L0.409985 1.59829Z" fill="url(#paint0_linear)"/>
<path d="M15.0561 16.4037L11.4299 12.751V12.4945L15.0561 8.83295L15.1357 8.87717L19.4783 11.3447C20.7165 12.0434 20.7165 13.1932 19.4783 13.9007L15.1534 16.3595L15.0561 16.4037Z" fill="url(#paint1_linear)"/>
<path d="M15.1622 16.3588L11.4299 12.6177L0.409912 23.6377C0.930593 24.0954 1.70333 24.1177 2.24953 23.6908L15.1711 16.35" fill="url(#paint2_linear)"/>
<path d="M15.1623 8.88586L2.24074 1.54507C1.69454 1.11813 0.921804 1.14042 0.401123 1.59814L11.43 12.6182L15.1623 8.88586Z" fill="url(#paint3_linear)"/>
<path opacity="0.2" d="M15.0561 16.2703L2.24069 23.5668C1.71625 23.9589 0.996257 23.9589 0.471822 23.5668V23.5668L0.409912 23.6287V23.6287L0.471822 23.6907V23.6907C0.99527 24.0857 1.71724 24.0857 2.24069 23.6907L15.1622 16.3499L15.0561 16.2703Z" fill="black"/>
<path opacity="0.12" d="M0.410007 23.5138C0.12174 23.1679 -0.0237595 22.7251 0.00316822 22.2756V22.4083C-0.0237595 22.8578 0.12174 23.3006 0.410007 23.6465L0.471918 23.5846L0.410007 23.5138Z" fill="black"/>
<path opacity="0.12" d="M19.4783 13.7674L15.0562 16.2704L15.1358 16.35L19.4783 13.8913C19.9799 13.6557 20.3172 13.1699 20.3627 12.6177V12.6177C20.2619 13.1172 19.9353 13.5419 19.4783 13.7674Z" fill="black"/>
<path opacity="0.25" d="M2.24068 1.66841L19.4783 11.4679C19.9353 11.6935 20.2619 12.1181 20.3627 12.6177V12.6177C20.3171 12.0654 19.9798 11.5797 19.4783 11.3441L2.24068 1.54459C1.01132 0.837044 0.020752 1.42077 0.020752 2.83586V2.96853C0.020752 1.55343 1.01132 0.969709 2.24068 1.66841Z" fill="white"/>
<defs>
<linearGradient id="paint0_linear" x1="6.63589" y1="-11.7764" x2="-10.9068" y2="-7.12423" gradientUnits="userSpaceOnUse">
<stop stop-color="#00A0FF"/>
<stop offset="0.01" stop-color="#00A1FF"/>
<stop offset="0.26" stop-color="#00BEFF"/>
<stop offset="0.51" stop-color="#00D2FF"/>
<stop offset="0.76" stop-color="#00DFFF"/>
<stop offset="1" stop-color="#00E3FF"/>
</linearGradient>
<linearGradient id="paint1_linear" x1="21.0968" y1="3.59683" x2="-0.297646" y2="3.59683" gradientUnits="userSpaceOnUse">
<stop stop-color="#FFE000"/>
<stop offset="0.41" stop-color="#FFBD00"/>
<stop offset="0.78" stop-color="#FFA500"/>
<stop offset="1" stop-color="#FF9C00"/>
</linearGradient>
<linearGradient id="paint2_linear" x1="0.0861131" y1="6.89321" x2="-14.0086" y2="30.6018" gradientUnits="userSpaceOnUse">
<stop stop-color="#FF3A44"/>
<stop offset="1" stop-color="#C31162"/>
</linearGradient>
<linearGradient id="paint3_linear" x1="-8.19555" y1="-1.44784" x2="-1.90432" y2="9.13923" gradientUnits="userSpaceOnUse">
<stop stop-color="#32A071"/>
<stop offset="0.07" stop-color="#2DA771"/>
<stop offset="0.48" stop-color="#15CF74"/>
<stop offset="0.8" stop-color="#06E775"/>
<stop offset="1" stop-color="#00F076"/>
</linearGradient>
</defs>
</svg>
