<svg width="90" height="24" viewBox="0 0 90 24" fill="none" xmlns="http://www.w3.org/2000/svg">
<path d="M14.2631 11.1592C14.2392 8.50821 16.4343 7.21849 16.5346 7.15845C15.2915 5.34644 13.3646 5.09886 12.6875 5.07912C11.0692 4.90886 9.4994 6.04723 8.67502 6.04723C7.83418 6.04723 6.5647 5.09557 5.19649 5.12354C3.43583 5.15068 1.78871 6.16978 0.885344 7.75231C-0.978979 10.9791 0.411448 15.7209 2.19761 18.3291C3.0911 19.6073 4.13516 21.0327 5.50172 20.9825C6.83867 20.9283 7.33807 20.1312 8.95146 20.1312C10.55 20.1312 11.019 20.9825 12.4127 20.9505C13.8476 20.9283 14.7509 19.6673 15.6132 18.3784C16.6457 16.9152 17.0604 15.4725 17.0768 15.3985C17.0439 15.3869 14.291 14.3358 14.2631 11.1592V11.1592ZM11.6303 3.36334C12.3494 2.46433 12.8414 1.24124 12.7048 6.10352e-05C11.664 0.0461221 10.3625 0.719766 9.61294 1.59904C8.94982 2.37385 8.35744 3.64382 8.51047 4.83812C9.67958 4.92531 10.88 4.24838 11.6303 3.36334V3.36334Z" fill="white"/>
<path d="M33.6277 20.7998H31.7593L30.7358 17.5846H27.1783L26.2034 20.7998H24.3843L27.9097 9.85375H30.0867L33.6277 20.7998V20.7998ZM30.4273 16.2357L29.5017 13.3774C29.4038 13.0854 29.2195 12.3978 28.9497 11.3154H28.9167C28.8081 11.7809 28.6345 12.4685 28.3968 13.3774L27.4868 16.2357H30.4273ZM42.6762 16.7563C42.6762 18.0987 42.3117 19.1597 41.582 19.9387C40.9287 20.632 40.1167 20.9783 39.1483 20.9783C38.1026 20.9783 37.3506 20.6057 36.894 19.8589V24.0003H35.1399V15.5012C35.1399 14.6581 35.1177 13.7936 35.0749 12.9069H36.6176L36.7155 14.158H36.7484C37.3334 13.2154 38.2211 12.7441 39.4124 12.7441C40.3438 12.7441 41.1212 13.1117 41.7432 13.8479C42.3644 14.5857 42.6762 15.5546 42.6762 16.7563ZM40.8892 16.8205C40.8892 16.0523 40.7165 15.4189 40.3693 14.9196C39.99 14.4006 39.4807 14.1407 38.8423 14.1407C38.4095 14.1407 38.0162 14.2855 37.6649 14.5709C37.3128 14.8588 37.0824 15.2347 36.9746 15.7002C36.9265 15.8743 36.8992 16.0535 36.8932 16.234V17.5509C36.8932 18.1242 37.0693 18.6086 37.4214 19.0051C37.7735 19.3999 38.231 19.5981 38.7937 19.5981C39.4544 19.5981 39.9686 19.3423 40.3364 18.8348C40.7049 18.3257 40.8892 17.6545 40.8892 16.8205V16.8205ZM51.7568 16.7563C51.7568 18.0987 51.3923 19.1597 50.6625 19.9387C50.0085 20.632 49.1972 20.9783 48.2281 20.9783C47.1824 20.9783 46.4304 20.6057 45.9738 19.8589V24.0003H44.2197V15.5012C44.2197 14.6581 44.1975 13.7936 44.1547 12.9069H45.6973L45.7952 14.158H45.8281C46.4123 13.2154 47.3 12.7441 48.4922 12.7441C49.4227 12.7441 50.2002 13.1117 50.8238 13.8479C51.4441 14.5857 51.7568 15.5546 51.7568 16.7563V16.7563ZM49.969 16.8205C49.969 16.0523 49.7954 15.4189 49.4482 14.9196C49.0689 14.4006 48.5613 14.1407 47.9228 14.1407C47.4901 14.1407 47.0968 14.2855 46.7438 14.5709C46.3917 14.8588 46.1622 15.2347 46.0544 15.7002C46.0009 15.9174 45.9721 16.0942 45.9721 16.234V17.5509C45.9721 18.1242 46.149 18.6086 46.4995 19.0051C46.8516 19.3991 47.3091 19.5981 47.8735 19.5981C48.5349 19.5981 49.0492 19.3423 49.4161 18.8348C49.7847 18.3257 49.969 17.6545 49.969 16.8205V16.8205ZM61.9094 17.7294C61.9094 18.6613 61.5836 19.4188 60.9361 20.0036C60.2236 20.6419 59.2289 20.9619 57.9537 20.9619C56.7755 20.9619 55.831 20.7349 55.1185 20.28L55.5241 18.8184C56.2934 19.2741 57.1383 19.5011 58.0581 19.5011C58.7196 19.5011 59.2338 19.3514 59.6008 19.0545C59.9685 18.7567 60.1545 18.3586 60.1545 17.8618C60.1545 17.4168 60.0006 17.0442 59.6987 16.7407C59.3951 16.438 58.8932 16.1559 58.1881 15.8968C56.2711 15.182 55.3118 14.1366 55.3118 12.7614C55.3118 11.8632 55.6508 11.1278 56.3271 10.5529C57.0034 9.97877 57.9002 9.69171 59.0158 9.69171C60.0121 9.69171 60.8423 9.86526 61.5013 10.2115L61.0611 11.6411C60.4408 11.3055 59.7406 11.1377 58.9574 11.1377C58.3387 11.1377 57.8533 11.2899 57.5061 11.5926C57.214 11.8632 57.0659 12.193 57.0659 12.5845C57.0659 13.0163 57.2346 13.375 57.5703 13.6563C57.8615 13.9154 58.393 14.1975 59.1614 14.5002C60.1043 14.8802 60.797 15.3227 61.2405 15.831C61.6872 16.3393 61.9094 16.9735 61.9094 17.7294ZM67.7237 14.223H65.7902V18.0551C65.7902 19.0298 66.1308 19.5159 66.8137 19.5159C67.1272 19.5159 67.3872 19.4896 67.5929 19.4345L67.6414 20.7661C67.2958 20.8953 66.8409 20.9602 66.2773 20.9602C65.5845 20.9602 65.0432 20.7488 64.6524 20.3261C64.2632 19.9033 64.0674 19.1951 64.0674 18.1982V14.2197H62.9156V12.9037H64.0674V11.4585L65.7902 10.9387V12.9037H67.7237V14.223V14.223ZM76.4299 16.7884C76.4299 18.0016 76.0827 18.9977 75.3899 19.7766C74.6651 20.5786 73.7009 20.9783 72.4988 20.9783C71.3388 20.9783 70.4165 20.5942 69.7287 19.8268C69.0409 19.0577 68.697 18.0888 68.697 16.92C68.697 15.6969 69.0524 14.6951 69.7608 13.9162C70.4708 13.1364 71.4268 12.7465 72.6288 12.7465C73.7873 12.7465 74.7178 13.1315 75.422 13.8997C76.095 14.6449 76.4299 15.6073 76.4299 16.7884ZM74.6116 16.8287C74.6116 16.1057 74.4553 15.4855 74.1418 14.9665C73.7741 14.3398 73.2475 14.0264 72.5655 14.0264C71.8629 14.0264 71.324 14.3398 70.957 14.9665C70.6427 15.4855 70.4864 16.1164 70.4864 16.8616C70.4864 17.5854 70.6427 18.2073 70.957 18.7246C71.3363 19.3514 71.8653 19.6648 72.5507 19.6648C73.2212 19.6648 73.7469 19.3448 74.127 18.709C74.4496 18.1776 74.6116 17.5534 74.6116 16.8287ZM82.1339 14.4492C81.9515 14.4162 81.7664 14.4 81.581 14.4006C80.964 14.4006 80.4868 14.6326 80.1511 15.0998C79.8599 15.511 79.7134 16.0309 79.7134 16.6585V20.7998H77.9594V15.3926C77.9609 14.564 77.9439 13.7356 77.9083 12.9078H79.4362L79.5003 14.4179H79.5489C79.7348 13.8989 80.0261 13.4802 80.4259 13.1669C80.7919 12.893 81.2366 12.7447 81.6938 12.7441C81.8558 12.7441 82.0023 12.7556 82.1323 12.7762L82.1339 14.4492V14.4492ZM89.9787 16.48C89.9832 16.7465 89.9617 17.0129 89.9146 17.2753H84.6523C84.6721 18.0551 84.9271 18.6522 85.4158 19.0635C85.8593 19.4303 86.4327 19.6146 87.137 19.6146C87.9161 19.6146 88.627 19.4912 89.2663 19.242L89.541 20.4585C88.794 20.7842 87.912 20.9462 86.8943 20.9462C85.6701 20.9462 84.7091 20.586 84.0098 19.8671C83.3121 19.1474 82.9624 18.1801 82.9624 16.9685C82.9624 15.7792 83.2874 14.788 83.9382 13.9976C84.6194 13.1537 85.5401 12.7317 86.6985 12.7317C87.8363 12.7317 88.6977 13.1537 89.2827 13.9976C89.7459 14.6663 89.9787 15.4954 89.9787 16.48V16.48ZM88.3061 16.0251C88.3185 15.5045 88.2033 15.0562 87.9655 14.677C87.6619 14.1884 87.1946 13.945 86.5685 13.945C85.995 13.945 85.5277 14.1827 85.1723 14.6597C84.8802 15.0389 84.7066 15.4946 84.6532 16.0235L88.3061 16.0251Z" fill="white"/>
<path d="M26.6724 5.98295C26.1845 5.98295 25.7624 5.95909 25.4111 5.91879V0.6267C25.9025 0.550818 26.399 0.513417 26.8962 0.514837C28.9078 0.514837 29.8342 1.50433 29.8342 3.11729C29.8342 4.97783 28.7399 5.98295 26.6724 5.98295ZM26.9669 1.19342C26.6954 1.19342 26.4642 1.20987 26.2725 1.24935V5.27229C26.3762 5.28874 26.5753 5.29614 26.855 5.29614C28.1731 5.29614 28.9234 4.54601 28.9234 3.14114C28.9234 1.88844 28.2446 1.19342 26.9669 1.19342V1.19342ZM32.7212 6.02325C31.5874 6.02325 30.8527 5.17688 30.8527 4.02782C30.8527 2.83023 31.6031 1.97645 32.7853 1.97645C33.9026 1.97645 34.6538 2.78252 34.6538 3.96448C34.6538 5.17688 33.8796 6.02325 32.7212 6.02325ZM32.7541 2.6065C32.1312 2.6065 31.7322 3.18885 31.7322 4.00314C31.7322 4.80181 32.1395 5.38415 32.7458 5.38415C33.3522 5.38415 33.7594 4.76151 33.7594 3.98669C33.7594 3.19707 33.3604 2.6065 32.7541 2.6065ZM41.1188 2.05624L39.9053 5.93524H39.1146L38.6119 4.25072C38.487 3.83868 38.3829 3.42058 38.3001 2.99802H38.2837C38.2203 3.4208 38.1002 3.8444 37.9727 4.25072L37.4379 5.93524H36.639L35.4971 2.05624H36.3832L36.8225 3.90033C36.9262 4.33955 37.0134 4.7541 37.0858 5.14562H37.1022C37.1656 4.81908 37.2692 4.41111 37.4214 3.90855L37.9727 2.05706H38.6753L39.2027 3.86907C39.3302 4.3083 39.4339 4.7393 39.5145 5.14645H39.5375C39.5935 4.74752 39.6815 4.32393 39.8008 3.86907L40.2722 2.05706L41.1188 2.05624V2.05624ZM45.5863 5.93524H44.7241V3.70786C44.7241 3.02188 44.4608 2.67806 43.9416 2.67806C43.4307 2.67806 43.0794 3.11729 43.0794 3.62807V5.93524H42.2172V3.16499C42.2172 2.822 42.209 2.45434 42.1851 2.05542H42.9437L42.984 2.65421H43.0078C43.2398 2.23966 43.7104 1.97645 44.2378 1.97645C45.0523 1.97645 45.5871 2.5991 45.5871 3.61245L45.5863 5.93524V5.93524ZM47.964 5.93524H47.101V0.276306H47.964V5.93524ZM51.1077 6.02325C49.9748 6.02325 49.2392 5.17688 49.2392 4.02782C49.2392 2.83023 49.9896 1.97645 51.171 1.97645C52.2891 1.97645 53.0395 2.78252 53.0395 3.96448C53.0403 5.17688 52.2653 6.02325 51.1077 6.02325ZM51.1398 2.6065C50.517 2.6065 50.1179 3.18885 50.1179 4.00314C50.1179 4.80181 50.526 5.38415 51.1307 5.38415C51.7379 5.38415 52.1443 4.76151 52.1443 3.98669C52.1452 3.19707 51.7469 2.6065 51.1398 2.6065V2.6065ZM56.439 5.93524L56.3765 5.48861H56.3535C56.0902 5.84805 55.706 6.02325 55.2189 6.02325C54.5237 6.02325 54.03 5.53632 54.03 4.88159C54.03 3.92418 54.8602 3.42902 56.2975 3.42902V3.35746C56.2975 2.84668 56.0268 2.59088 55.492 2.59088C55.1095 2.59088 54.7738 2.68711 54.4784 2.87876L54.3032 2.31204C54.6619 2.08832 55.1095 1.97645 55.6352 1.97645C56.6488 1.97645 57.1606 2.51109 57.1606 3.58119V5.00991C57.1606 5.40143 57.1778 5.70494 57.2165 5.93606L56.439 5.93524V5.93524ZM56.3205 4.00314C55.3629 4.00314 54.8824 4.23509 54.8824 4.78536C54.8824 5.19251 55.13 5.39156 55.4739 5.39156C55.9125 5.39156 56.3205 5.05679 56.3205 4.60194V4.00314V4.00314ZM61.3475 5.93524L61.3072 5.31259H61.2833C61.0356 5.78308 60.6193 6.02325 60.0377 6.02325C59.1022 6.02325 58.4095 5.20073 58.4095 4.04345C58.4095 2.83023 59.1277 1.97563 60.1084 1.97563C60.6276 1.97563 60.9953 2.15083 61.2027 2.50287H61.2199V0.276306H62.083V4.88982C62.083 5.26489 62.092 5.6161 62.1151 5.93524H61.3475ZM61.2199 3.65275C61.2199 3.10989 60.8604 2.64681 60.3116 2.64681C59.6724 2.64681 59.2816 3.21352 59.2816 4.01137C59.2816 4.79358 59.6872 5.32904 60.2944 5.32904C60.8366 5.32904 61.2199 4.85774 61.2199 4.29925V3.65275ZM67.555 6.02325C66.4221 6.02325 65.6874 5.17688 65.6874 4.02782C65.6874 2.83023 66.4377 1.97645 67.6192 1.97645C68.7373 1.97645 69.4876 2.78252 69.4876 3.96448C69.4885 5.17688 68.7143 6.02325 67.555 6.02325ZM67.5871 2.6065C66.9651 2.6065 66.5661 3.18885 66.5661 4.00314C66.5661 4.80181 66.9733 5.38415 67.5789 5.38415C68.1861 5.38415 68.5925 4.76151 68.5925 3.98669C68.5941 3.19707 68.1951 2.6065 67.5871 2.6065ZM74.1246 5.93524H73.2615V3.70786C73.2615 3.02188 72.9982 2.67806 72.4791 2.67806C71.9682 2.67806 71.6177 3.11729 71.6177 3.62807V5.93524H70.7546V3.16499C70.7546 2.822 70.7464 2.45434 70.7226 2.05542H71.4811L71.5214 2.65421H71.5453C71.7765 2.23966 72.2479 1.97563 72.7745 1.97563C73.589 1.97563 74.1246 2.59828 74.1246 3.61162V5.93524ZM79.9257 2.70274H78.9771V4.58631C78.9771 5.06584 79.1433 5.30519 79.4789 5.30519C79.6312 5.30519 79.7587 5.28874 79.8615 5.26489L79.8854 5.91961C79.7184 5.98377 79.4946 6.01585 79.2165 6.01585C78.5369 6.01585 78.1305 5.64078 78.1305 4.65869V2.70274H77.5644V2.05624H78.1305V1.34558L78.9771 1.08978V2.05542H79.9257V2.70274V2.70274ZM84.4902 5.93524H83.6288V3.72431C83.6288 3.0301 83.3664 2.67889 82.8464 2.67889C82.3997 2.67889 81.9834 2.9824 81.9834 3.59682V5.93524H81.122V0.276306H81.9834V2.6065H82.0006C82.2721 2.18373 82.6654 1.97563 83.1673 1.97563C83.9884 1.97563 84.4902 2.61391 84.4902 3.62807V5.93524V5.93524ZM89.1667 4.20301H86.5792C86.5956 4.93752 87.0819 5.35208 87.8018 5.35208C88.1843 5.35208 88.5365 5.28792 88.8475 5.16865L88.9816 5.76745C88.6146 5.92702 88.1827 6.0068 87.68 6.0068C86.4665 6.0068 85.7482 5.24021 85.7482 4.05167C85.7482 2.86231 86.4837 1.96823 87.5829 1.96823C88.5743 1.96823 89.1963 2.70274 89.1963 3.81232C89.2019 3.94326 89.1919 4.07441 89.1667 4.20301V4.20301ZM88.376 3.58859C88.376 2.9898 88.0741 2.56702 87.5228 2.56702C87.0276 2.56702 86.6359 2.99802 86.58 3.58859H88.376V3.58859Z" fill="white"/>
</svg>
